<?xml version="1.0" encoding="utf-8"?><svg version="1.1" xmlns="http://www.w3.org/2000/svg" xmlns:xlink="http://www.w3.org/1999/xlink" x="0px" y="0px" viewBox="0 0 310 310" style="enable-background:new 0 0 310 310;" xml:space="preserve"><style type="text/css">.aws-tools-a{fill:#FFFFFF;}.aws-tools-b{fill:#252F3E;}.aws-tools-c{fill:#FF9900;}</style><rect class="aws-tools-a" width="310" height="310"/><g><path class="aws-tools-b" d="M100.5,134.5c0,3.1,0.3,5.6,0.9,7.4c0.7,1.8,1.5,3.8,2.7,6c0.4,0.7,0.6,1.3,0.6,1.9c0,0.8-0.5,1.7-1.6,2.5l-5.2,3.5c-0.7,0.5-1.5,0.7-2.2,0.7c-0.8,0-1.7-0.4-2.5-1.2c-1.2-1.2-2.2-2.6-3-3.9c-0.8-1.4-1.7-3-2.6-4.9c-6.5,7.6-14.6,11.5-24.4,11.5c-7,0-12.6-2-16.6-6s-6.2-9.3-6.2-16c0-7.1,2.5-12.8,7.6-17.1s11.8-6.5,20.4-6.5c2.8,0,5.7,0.2,8.8,0.7c3.1,0.4,6.2,1.1,9.6,1.8v-6.1c0-6.3-1.3-10.7-3.9-13.3c-2.7-2.6-7.2-3.8-13.6-3.8c-2.9,0-5.9,0.3-9,1.1c-3.1,0.7-6.1,1.7-9,2.8c-1.3,0.6-2.3,0.9-2.9,1.1C47.7,97,47.3,97,47,97c-1.2,0-1.7-0.8-1.7-2.6v-4.1c0-1.3,0.2-2.3,0.6-2.9c0.4-0.6,1.2-1.2,2.3-1.7c2.9-1.5,6.4-2.7,10.5-3.7c4.1-1.1,8.4-1.6,13-1.6c9.9,0,17.1,2.2,21.8,6.7c4.6,4.5,6.9,11.3,6.9,20.5v26.9H100.5z M66.7,147.2c2.7,0,5.6-0.5,8.6-1.5c3-1,5.7-2.8,7.9-5.3c1.3-1.6,2.3-3.3,2.8-5.3c0.5-2,0.8-4.4,0.8-7.2v-3.5c-2.4-0.6-5-1.1-7.6-1.4c-2.7-0.3-5.2-0.5-7.8-0.5c-5.6,0-9.6,1.1-12.4,3.3c-2.7,2.2-4.1,5.4-4.1,9.6c0,3.9,1,6.8,3.1,8.8C60,146.2,62.9,147.2,66.7,147.2z M133.5,156.2c-1.5,0-2.5-0.2-3.2-0.8c-0.7-0.5-1.2-1.7-1.7-3.2L109,87.8c-0.5-1.7-0.7-2.7-0.7-3.3c0-1.3,0.7-2.1,2-2.1h8.1c1.6,0,2.7,0.2,3.2,0.8c0.7,0.5,1.2,1.7,1.7,3.2l14,55l13-55c0.4-1.7,0.9-2.7,1.6-3.2c0.7-0.5,1.8-0.8,3.3-0.8h6.7c1.6,0,2.7,0.2,3.3,0.8c0.7,0.5,1.2,1.7,1.6,3.2l13.1,55.7l14.4-55.7c0.5-1.7,1.1-2.7,1.7-3.2c0.7-0.5,1.7-0.8,3.2-0.8h7.7c1.3,0,2.1,0.7,2.1,2.1c0,0.4-0.1,0.8-0.2,1.3s-0.2,1.2-0.6,2.1l-20,64.3c-0.5,1.7-1.1,2.7-1.7,3.2c-0.7,0.5-1.7,0.8-3.2,0.8h-7.2c-1.6,0-2.7-0.2-3.3-0.8s-1.2-1.7-1.6-3.3l-12.9-53.6L145.5,152c-0.4,1.7-0.9,2.7-1.6,3.3s-1.8,0.8-3.3,0.8H133.5z M240.3,158.4c-4.3,0-8.6-0.5-12.8-1.5c-4.2-1-7.4-2.1-9.6-3.3c-1.3-0.7-2.2-1.6-2.6-2.3c-0.3-0.7-0.5-1.6-0.5-2.3v-4.2c0-1.7,0.7-2.6,1.9-2.6c0.5,0,1,0.1,1.5,0.2c0.5,0.2,1.2,0.5,2.1,0.8c2.8,1.2,5.9,2.2,9.1,2.9c3.3,0.7,6.6,1,9.9,1c5.2,0,9.3-0.9,12.1-2.7c2.8-1.8,4.3-4.5,4.3-7.9c0-2.3-0.7-4.2-2.2-5.8c-1.5-1.6-4.3-3-8.4-4.3l-12.1-3.7c-6.1-1.9-10.6-4.7-13.3-8.5c-2.7-3.7-4.2-7.7-4.2-12.1c0-3.5,0.7-6.6,2.2-9.2c1.5-2.7,3.5-5,6-6.8c2.5-1.9,5.3-3.3,8.6-4.3c3.3-1,6.8-1.4,10.5-1.4c1.8,0,3.7,0.1,5.6,0.3c1.9,0.2,3.7,0.6,5.4,0.9c1.7,0.4,3.2,0.8,4.7,1.3c1.5,0.5,2.7,1,3.5,1.5c1.2,0.7,2,1.3,2.5,2.1c0.5,0.7,0.7,1.6,0.7,2.7v3.9c0,1.7-0.7,2.7-1.9,2.7c-0.7,0-1.7-0.3-3.2-1c-4.7-2.2-10.1-3.2-16-3.2c-4.7,0-8.5,0.7-11.1,2.3c-2.6,1.6-3.9,4-3.9,7.4c0,2.3,0.8,4.3,2.5,5.9c1.7,1.6,4.7,3.2,9.1,4.6l11.8,3.7c6,1.9,10.3,4.6,12.9,8s3.8,7.3,3.8,11.6c0,3.6-0.7,6.8-2.2,9.6c-1.5,2.8-3.5,5.3-6.1,7.3c-2.6,2.1-5.7,3.6-9.2,4.7C248.5,157.8,244.5,158.4,240.3,158.4L240.3,158.4z"/><path class="aws-tools-c" d="M256,198.8c-27.4,20.2-67.1,30.9-101.3,30.9c-47.9,0-91-17.7-123.6-47.1c-2.6-2.3-0.2-5.5,2.8-3.7c35.3,20.5,78.7,32.8,123.7,32.8c30.3,0,63.7-6.3,94.4-19.3C256.6,190.4,260.5,195.5,256,198.8L256,198.8z"/><path class="aws-tools-c" d="M267.4,185.8c-3.5-4.5-23.1-2.2-32-1.1c-2.7,0.3-3.1-2-0.7-3.7c15.6-11,41.3-7.8,44.3-4.2c3,3.7-0.8,29.4-15.5,41.7c-2.2,1.9-4.4,0.9-3.4-1.6C263.5,208.8,270.9,190.3,267.4,185.8z"/></g></svg>
